<svg height="24px" width="24px" xmlns="http://www.w3.org/2000/svg">
<rect fill="#000000" height="1px" width="1px" x="7px" y="2px"/>
<rect fill="#000000" height="1px" width="1px" x="8px" y="2px"/>
<rect fill="#000000" height="1px" width="1px" x="7px" y="3px"/>
<rect fill="#000000" height="1px" width="1px" x="8px" y="3px"/>
<rect fill="#000000" height="1px" width="1px" x="9px" y="3px"/>
<rect fill="#000000" height="1px" width="1px" x="8px" y="4px"/>
<rect fill="#000000" height="1px" width="1px" x="9px" y="4px"/>
<rect fill="#000000" height="1px" width="1px" x="10px" y="4px"/>
<rect fill="#000000" height="1px" width="1px" x="9px" y="5px"/>
<rect fill="#000000" height="1px" width="1px" x="10px" y="5px"/>
<rect fill="#000000" height="1px" width="1px" x="11px" y="5px"/>
<rect fill="#000000" height="1px" width="1px" x="10px" y="6px"/>
<rect fill="#000000" height="1px" width="1px" x="11px" y="6px"/>
<rect fill="#000000" height="1px" width="1px" x="12px" y="6px"/>
<rect fill="#000000" height="1px" width="1px" x="11px" y="7px"/>
<rect fill="#000000" height="1px" width="1px" x="12px" y="7px"/>
<rect fill="#000000" height="1px" width="1px" x="13px" y="7px"/>
<rect fill="#000000" height="1px" width="1px" x="12px" y="8px"/>
<rect fill="#000000" height="1px" width="1px" x="13px" y="8px"/>
<rect fill="#000000" height="1px" width="1px" x="14px" y="8px"/>
<rect fill="#000000" height="1px" width="1px" x="13px" y="9px"/>
<rect fill="#000000" height="1px" width="1px" x="14px" y="9px"/>
<rect fill="#000000" height="1px" width="1px" x="15px" y="9px"/>
<rect fill="#000000" height="1px" width="1px" x="14px" y="10px"/>
<rect fill="#000000" height="1px" width="1px" x="15px" y="10px"/>
<rect fill="#000000" height="1px" width="1px" x="16px" y="10px"/>
<rect fill="#000000" height="1px" width="1px" x="15px" y="11px"/>
<rect fill="#000000" height="1px" width="1px" x="16px" y="11px"/>
<rect fill="#000000" height="1px" width="1px" x="17px" y="11px"/>
<rect fill="#000000" height="1px" width="1px" x="15px" y="12px"/>
<rect fill="#000000" height="1px" width="1px" x="16px" y="12px"/>
<rect fill="#000000" height="1px" width="1px" x="17px" y="12px"/>
<rect fill="#000000" height="1px" width="1px" x="14px" y="13px"/>
<rect fill="#000000" height="1px" width="1px" x="15px" y="13px"/>
<rect fill="#000000" height="1px" width="1px" x="16px" y="13px"/>
<rect fill="#000000" height="1px" width="1px" x="13px" y="14px"/>
<rect fill="#000000" height="1px" width="1px" x="14px" y="14px"/>
<rect fill="#000000" height="1px" width="1px" x="15px" y="14px"/>
<rect fill="#000000" height="1px" width="1px" x="12px" y="15px"/>
<rect fill="#000000" height="1px" width="1px" x="13px" y="15px"/>
<rect fill="#000000" height="1px" width="1px" x="14px" y="15px"/>
<rect fill="#000000" height="1px" width="1px" x="11px" y="16px"/>
<rect fill="#000000" height="1px" width="1px" x="12px" y="16px"/>
<rect fill="#000000" height="1px" width="1px" x="13px" y="16px"/>
<rect fill="#000000" height="1px" width="1px" x="10px" y="17px"/>
<rect fill="#000000" height="1px" width="1px" x="11px" y="17px"/>
<rect fill="#000000" height="1px" width="1px" x="12px" y="17px"/>
<rect fill="#000000" height="1px" width="1px" x="9px" y="18px"/>
<rect fill="#000000" height="1px" width="1px" x="10px" y="18px"/>
<rect fill="#000000" height="1px" width="1px" x="11px" y="18px"/>
<rect fill="#000000" height="1px" width="1px" x="8px" y="19px"/>
<rect fill="#000000" height="1px" width="1px" x="9px" y="19px"/>
<rect fill="#000000" height="1px" width="1px" x="10px" y="19px"/>
<rect fill="#000000" height="1px" width="1px" x="7px" y="20px"/>
<rect fill="#000000" height="1px" width="1px" x="8px" y="20px"/>
<rect fill="#000000" height="1px" width="1px" x="9px" y="20px"/>
<rect fill="#000000" height="1px" width="1px" x="7px" y="21px"/>
<rect fill="#000000" height="1px" width="1px" x="8px" y="21px"/>
</svg>