<svg height="24px" width="24px" xmlns="http://www.w3.org/2000/svg">
<rect fill="#000000" height="1px" width="1px" x="2px" y="4px"/>
<rect fill="#000000" height="1px" width="1px" x="3px" y="4px"/>
<rect fill="#000000" height="1px" width="1px" x="4px" y="4px"/>
<rect fill="#000000" height="1px" width="1px" x="5px" y="4px"/>
<rect fill="#000000" height="1px" width="1px" x="6px" y="4px"/>
<rect fill="#000000" height="1px" width="1px" x="7px" y="4px"/>
<rect fill="#000000" height="1px" width="1px" x="8px" y="4px"/>
<rect fill="#000000" height="1px" width="1px" x="9px" y="4px"/>
<rect fill="#000000" height="1px" width="1px" x="10px" y="4px"/>
<rect fill="#000000" height="1px" width="1px" x="11px" y="4px"/>
<rect fill="#000000" height="1px" width="1px" x="12px" y="4px"/>
<rect fill="#000000" height="1px" width="1px" x="13px" y="4px"/>
<rect fill="#000000" height="1px" width="1px" x="14px" y="4px"/>
<rect fill="#000000" height="1px" width="1px" x="15px" y="4px"/>
<rect fill="#000000" height="1px" width="1px" x="16px" y="4px"/>
<rect fill="#000000" height="1px" width="1px" x="17px" y="4px"/>
<rect fill="#000000" height="1px" width="1px" x="18px" y="4px"/>
<rect fill="#000000" height="1px" width="1px" x="19px" y="4px"/>
<rect fill="#000000" height="1px" width="1px" x="20px" y="4px"/>
<rect fill="#000000" height="1px" width="1px" x="21px" y="4px"/>
<rect fill="#000000" height="1px" width="1px" x="2px" y="5px"/>
<rect fill="#000000" height="1px" width="1px" x="3px" y="5px"/>
<rect fill="#000000" height="1px" width="1px" x="4px" y="5px"/>
<rect fill="#000000" height="1px" width="1px" x="5px" y="5px"/>
<rect fill="#000000" height="1px" width="1px" x="6px" y="5px"/>
<rect fill="#000000" height="1px" width="1px" x="7px" y="5px"/>
<rect fill="#000000" height="1px" width="1px" x="8px" y="5px"/>
<rect fill="#000000" height="1px" width="1px" x="9px" y="5px"/>
<rect fill="#000000" height="1px" width="1px" x="10px" y="5px"/>
<rect fill="#000000" height="1px" width="1px" x="11px" y="5px"/>
<rect fill="#000000" height="1px" width="1px" x="12px" y="5px"/>
<rect fill="#000000" height="1px" width="1px" x="13px" y="5px"/>
<rect fill="#000000" height="1px" width="1px" x="14px" y="5px"/>
<rect fill="#000000" height="1px" width="1px" x="15px" y="5px"/>
<rect fill="#000000" height="1px" width="1px" x="16px" y="5px"/>
<rect fill="#000000" height="1px" width="1px" x="17px" y="5px"/>
<rect fill="#000000" height="1px" width="1px" x="18px" y="5px"/>
<rect fill="#000000" height="1px" width="1px" x="19px" y="5px"/>
<rect fill="#000000" height="1px" width="1px" x="20px" y="5px"/>
<rect fill="#000000" height="1px" width="1px" x="21px" y="5px"/>
<rect fill="#000000" height="1px" width="1px" x="2px" y="11px"/>
<rect fill="#000000" height="1px" width="1px" x="3px" y="11px"/>
<rect fill="#000000" height="1px" width="1px" x="4px" y="11px"/>
<rect fill="#000000" height="1px" width="1px" x="5px" y="11px"/>
<rect fill="#000000" height="1px" width="1px" x="6px" y="11px"/>
<rect fill="#000000" height="1px" width="1px" x="7px" y="11px"/>
<rect fill="#000000" height="1px" width="1px" x="8px" y="11px"/>
<rect fill="#000000" height="1px" width="1px" x="9px" y="11px"/>
<rect fill="#000000" height="1px" width="1px" x="10px" y="11px"/>
<rect fill="#000000" height="1px" width="1px" x="11px" y="11px"/>
<rect fill="#000000" height="1px" width="1px" x="12px" y="11px"/>
<rect fill="#000000" height="1px" width="1px" x="13px" y="11px"/>
<rect fill="#000000" height="1px" width="1px" x="14px" y="11px"/>
<rect fill="#000000" height="1px" width="1px" x="15px" y="11px"/>
<rect fill="#000000" height="1px" width="1px" x="16px" y="11px"/>
<rect fill="#000000" height="1px" width="1px" x="17px" y="11px"/>
<rect fill="#000000" height="1px" width="1px" x="18px" y="11px"/>
<rect fill="#000000" height="1px" width="1px" x="19px" y="11px"/>
<rect fill="#000000" height="1px" width="1px" x="20px" y="11px"/>
<rect fill="#000000" height="1px" width="1px" x="21px" y="11px"/>
<rect fill="#000000" height="1px" width="1px" x="2px" y="12px"/>
<rect fill="#000000" height="1px" width="1px" x="3px" y="12px"/>
<rect fill="#000000" height="1px" width="1px" x="4px" y="12px"/>
<rect fill="#000000" height="1px" width="1px" x="5px" y="12px"/>
<rect fill="#000000" height="1px" width="1px" x="6px" y="12px"/>
<rect fill="#000000" height="1px" width="1px" x="7px" y="12px"/>
<rect fill="#000000" height="1px" width="1px" x="8px" y="12px"/>
<rect fill="#000000" height="1px" width="1px" x="9px" y="12px"/>
<rect fill="#000000" height="1px" width="1px" x="10px" y="12px"/>
<rect fill="#000000" height="1px" width="1px" x="11px" y="12px"/>
<rect fill="#000000" height="1px" width="1px" x="12px" y="12px"/>
<rect fill="#000000" height="1px" width="1px" x="13px" y="12px"/>
<rect fill="#000000" height="1px" width="1px" x="14px" y="12px"/>
<rect fill="#000000" height="1px" width="1px" x="15px" y="12px"/>
<rect fill="#000000" height="1px" width="1px" x="16px" y="12px"/>
<rect fill="#000000" height="1px" width="1px" x="17px" y="12px"/>
<rect fill="#000000" height="1px" width="1px" x="18px" y="12px"/>
<rect fill="#000000" height="1px" width="1px" x="19px" y="12px"/>
<rect fill="#000000" height="1px" width="1px" x="20px" y="12px"/>
<rect fill="#000000" height="1px" width="1px" x="21px" y="12px"/>
<rect fill="#000000" height="1px" width="1px" x="2px" y="18px"/>
<rect fill="#000000" height="1px" width="1px" x="3px" y="18px"/>
<rect fill="#000000" height="1px" width="1px" x="4px" y="18px"/>
<rect fill="#000000" height="1px" width="1px" x="5px" y="18px"/>
<rect fill="#000000" height="1px" width="1px" x="6px" y="18px"/>
<rect fill="#000000" height="1px" width="1px" x="7px" y="18px"/>
<rect fill="#000000" height="1px" width="1px" x="8px" y="18px"/>
<rect fill="#000000" height="1px" width="1px" x="9px" y="18px"/>
<rect fill="#000000" height="1px" width="1px" x="10px" y="18px"/>
<rect fill="#000000" height="1px" width="1px" x="11px" y="18px"/>
<rect fill="#000000" height="1px" width="1px" x="12px" y="18px"/>
<rect fill="#000000" height="1px" width="1px" x="13px" y="18px"/>
<rect fill="#000000" height="1px" width="1px" x="14px" y="18px"/>
<rect fill="#000000" height="1px" width="1px" x="15px" y="18px"/>
<rect fill="#000000" height="1px" width="1px" x="16px" y="18px"/>
<rect fill="#000000" height="1px" width="1px" x="17px" y="18px"/>
<rect fill="#000000" height="1px" width="1px" x="18px" y="18px"/>
<rect fill="#000000" height="1px" width="1px" x="19px" y="18px"/>
<rect fill="#000000" height="1px" width="1px" x="20px" y="18px"/>
<rect fill="#000000" height="1px" width="1px" x="21px" y="18px"/>
<rect fill="#000000" height="1px" width="1px" x="2px" y="19px"/>
<rect fill="#000000" height="1px" width="1px" x="3px" y="19px"/>
<rect fill="#000000" height="1px" width="1px" x="4px" y="19px"/>
<rect fill="#000000" height="1px" width="1px" x="5px" y="19px"/>
<rect fill="#000000" height="1px" width="1px" x="6px" y="19px"/>
<rect fill="#000000" height="1px" width="1px" x="7px" y="19px"/>
<rect fill="#000000" height="1px" width="1px" x="8px" y="19px"/>
<rect fill="#000000" height="1px" width="1px" x="9px" y="19px"/>
<rect fill="#000000" height="1px" width="1px" x="10px" y="19px"/>
<rect fill="#000000" height="1px" width="1px" x="11px" y="19px"/>
<rect fill="#000000" height="1px" width="1px" x="12px" y="19px"/>
<rect fill="#000000" height="1px" width="1px" x="13px" y="19px"/>
<rect fill="#000000" height="1px" width="1px" x="14px" y="19px"/>
<rect fill="#000000" height="1px" width="1px" x="15px" y="19px"/>
<rect fill="#000000" height="1px" width="1px" x="16px" y="19px"/>
<rect fill="#000000" height="1px" width="1px" x="17px" y="19px"/>
<rect fill="#000000" height="1px" width="1px" x="18px" y="19px"/>
<rect fill="#000000" height="1px" width="1px" x="19px" y="19px"/>
<rect fill="#000000" height="1px" width="1px" x="20px" y="19px"/>
<rect fill="#000000" height="1px" width="1px" x="21px" y="19px"/>
</svg>