<svg height="32px" width="32px" xmlns="http://www.w3.org/2000/svg">
<rect fill="#000000" height="1px" width="1px" x="13px" y="4px"/>
<rect fill="#000000" height="1px" width="1px" x="14px" y="4px"/>
<rect fill="#000000" height="1px" width="1px" x="15px" y="4px"/>
<rect fill="#000000" height="1px" width="1px" x="16px" y="4px"/>
<rect fill="#000000" height="1px" width="1px" x="17px" y="4px"/>
<rect fill="#000000" height="1px" width="1px" x="18px" y="4px"/>
<rect fill="#000000" height="1px" width="1px" x="12px" y="5px"/>
<rect fill="#000000" height="1px" width="1px" x="13px" y="5px"/>
<rect fill="#000000" height="1px" width="1px" x="14px" y="5px"/>
<rect fill="#000000" height="1px" width="1px" x="15px" y="5px"/>
<rect fill="#000000" height="1px" width="1px" x="16px" y="5px"/>
<rect fill="#000000" height="1px" width="1px" x="17px" y="5px"/>
<rect fill="#000000" height="1px" width="1px" x="18px" y="5px"/>
<rect fill="#000000" height="1px" width="1px" x="19px" y="5px"/>
<rect fill="#000000" height="1px" width="1px" x="11px" y="6px"/>
<rect fill="#000000" height="1px" width="1px" x="12px" y="6px"/>
<rect fill="#000000" height="1px" width="1px" x="13px" y="6px"/>
<rect fill="#000000" height="1px" width="1px" x="18px" y="6px"/>
<rect fill="#000000" height="1px" width="1px" x="19px" y="6px"/>
<rect fill="#000000" height="1px" width="1px" x="20px" y="6px"/>
<rect fill="#000000" height="1px" width="1px" x="10px" y="7px"/>
<rect fill="#000000" height="1px" width="1px" x="11px" y="7px"/>
<rect fill="#000000" height="1px" width="1px" x="12px" y="7px"/>
<rect fill="#000000" height="1px" width="1px" x="19px" y="7px"/>
<rect fill="#000000" height="1px" width="1px" x="20px" y="7px"/>
<rect fill="#000000" height="1px" width="1px" x="21px" y="7px"/>
<rect fill="#000000" height="1px" width="1px" x="10px" y="8px"/>
<rect fill="#000000" height="1px" width="1px" x="11px" y="8px"/>
<rect fill="#000000" height="1px" width="1px" x="20px" y="8px"/>
<rect fill="#000000" height="1px" width="1px" x="21px" y="8px"/>
<rect fill="#000000" height="1px" width="1px" x="10px" y="9px"/>
<rect fill="#000000" height="1px" width="1px" x="11px" y="9px"/>
<rect fill="#000000" height="1px" width="1px" x="20px" y="9px"/>
<rect fill="#000000" height="1px" width="1px" x="21px" y="9px"/>
<rect fill="#000000" height="1px" width="1px" x="10px" y="10px"/>
<rect fill="#000000" height="1px" width="1px" x="11px" y="10px"/>
<rect fill="#000000" height="1px" width="1px" x="20px" y="10px"/>
<rect fill="#000000" height="1px" width="1px" x="21px" y="10px"/>
<rect fill="#000000" height="1px" width="1px" x="10px" y="11px"/>
<rect fill="#000000" height="1px" width="1px" x="11px" y="11px"/>
<rect fill="#000000" height="1px" width="1px" x="20px" y="11px"/>
<rect fill="#000000" height="1px" width="1px" x="21px" y="11px"/>
<rect fill="#000000" height="1px" width="1px" x="10px" y="12px"/>
<rect fill="#000000" height="1px" width="1px" x="11px" y="12px"/>
<rect fill="#000000" height="1px" width="1px" x="12px" y="12px"/>
<rect fill="#000000" height="1px" width="1px" x="19px" y="12px"/>
<rect fill="#000000" height="1px" width="1px" x="20px" y="12px"/>
<rect fill="#000000" height="1px" width="1px" x="21px" y="12px"/>
<rect fill="#000000" height="1px" width="1px" x="11px" y="13px"/>
<rect fill="#000000" height="1px" width="1px" x="12px" y="13px"/>
<rect fill="#000000" height="1px" width="1px" x="13px" y="13px"/>
<rect fill="#000000" height="1px" width="1px" x="18px" y="13px"/>
<rect fill="#000000" height="1px" width="1px" x="19px" y="13px"/>
<rect fill="#000000" height="1px" width="1px" x="20px" y="13px"/>
<rect fill="#000000" height="1px" width="1px" x="12px" y="14px"/>
<rect fill="#000000" height="1px" width="1px" x="13px" y="14px"/>
<rect fill="#000000" height="1px" width="1px" x="14px" y="14px"/>
<rect fill="#000000" height="1px" width="1px" x="15px" y="14px"/>
<rect fill="#000000" height="1px" width="1px" x="16px" y="14px"/>
<rect fill="#000000" height="1px" width="1px" x="17px" y="14px"/>
<rect fill="#000000" height="1px" width="1px" x="18px" y="14px"/>
<rect fill="#000000" height="1px" width="1px" x="19px" y="14px"/>
<rect fill="#000000" height="1px" width="1px" x="13px" y="15px"/>
<rect fill="#000000" height="1px" width="1px" x="14px" y="15px"/>
<rect fill="#000000" height="1px" width="1px" x="15px" y="15px"/>
<rect fill="#000000" height="1px" width="1px" x="16px" y="15px"/>
<rect fill="#000000" height="1px" width="1px" x="17px" y="15px"/>
<rect fill="#000000" height="1px" width="1px" x="18px" y="15px"/>
<rect fill="#000000" height="1px" width="1px" x="6px" y="18px"/>
<rect fill="#000000" height="1px" width="1px" x="7px" y="18px"/>
<rect fill="#000000" height="1px" width="1px" x="8px" y="18px"/>
<rect fill="#000000" height="1px" width="1px" x="9px" y="18px"/>
<rect fill="#000000" height="1px" width="1px" x="10px" y="18px"/>
<rect fill="#000000" height="1px" width="1px" x="11px" y="18px"/>
<rect fill="#000000" height="1px" width="1px" x="12px" y="18px"/>
<rect fill="#000000" height="1px" width="1px" x="13px" y="18px"/>
<rect fill="#000000" height="1px" width="1px" x="14px" y="18px"/>
<rect fill="#000000" height="1px" width="1px" x="15px" y="18px"/>
<rect fill="#000000" height="1px" width="1px" x="16px" y="18px"/>
<rect fill="#000000" height="1px" width="1px" x="17px" y="18px"/>
<rect fill="#000000" height="1px" width="1px" x="18px" y="18px"/>
<rect fill="#000000" height="1px" width="1px" x="19px" y="18px"/>
<rect fill="#000000" height="1px" width="1px" x="20px" y="18px"/>
<rect fill="#000000" height="1px" width="1px" x="21px" y="18px"/>
<rect fill="#000000" height="1px" width="1px" x="22px" y="18px"/>
<rect fill="#000000" height="1px" width="1px" x="23px" y="18px"/>
<rect fill="#000000" height="1px" width="1px" x="24px" y="18px"/>
<rect fill="#000000" height="1px" width="1px" x="25px" y="18px"/>
<rect fill="#000000" height="1px" width="1px" x="5px" y="19px"/>
<rect fill="#000000" height="1px" width="1px" x="6px" y="19px"/>
<rect fill="#000000" height="1px" width="1px" x="7px" y="19px"/>
<rect fill="#000000" height="1px" width="1px" x="8px" y="19px"/>
<rect fill="#000000" height="1px" width="1px" x="9px" y="19px"/>
<rect fill="#000000" height="1px" width="1px" x="10px" y="19px"/>
<rect fill="#000000" height="1px" width="1px" x="11px" y="19px"/>
<rect fill="#000000" height="1px" width="1px" x="12px" y="19px"/>
<rect fill="#000000" height="1px" width="1px" x="13px" y="19px"/>
<rect fill="#000000" height="1px" width="1px" x="14px" y="19px"/>
<rect fill="#000000" height="1px" width="1px" x="15px" y="19px"/>
<rect fill="#000000" height="1px" width="1px" x="16px" y="19px"/>
<rect fill="#000000" height="1px" width="1px" x="17px" y="19px"/>
<rect fill="#000000" height="1px" width="1px" x="18px" y="19px"/>
<rect fill="#000000" height="1px" width="1px" x="19px" y="19px"/>
<rect fill="#000000" height="1px" width="1px" x="20px" y="19px"/>
<rect fill="#000000" height="1px" width="1px" x="21px" y="19px"/>
<rect fill="#000000" height="1px" width="1px" x="22px" y="19px"/>
<rect fill="#000000" height="1px" width="1px" x="23px" y="19px"/>
<rect fill="#000000" height="1px" width="1px" x="24px" y="19px"/>
<rect fill="#000000" height="1px" width="1px" x="25px" y="19px"/>
<rect fill="#000000" height="1px" width="1px" x="26px" y="19px"/>
<rect fill="#000000" height="1px" width="1px" x="4px" y="20px"/>
<rect fill="#000000" height="1px" width="1px" x="5px" y="20px"/>
<rect fill="#000000" height="1px" width="1px" x="6px" y="20px"/>
<rect fill="#000000" height="1px" width="1px" x="25px" y="20px"/>
<rect fill="#000000" height="1px" width="1px" x="26px" y="20px"/>
<rect fill="#000000" height="1px" width="1px" x="27px" y="20px"/>
<rect fill="#000000" height="1px" width="1px" x="4px" y="21px"/>
<rect fill="#000000" height="1px" width="1px" x="5px" y="21px"/>
<rect fill="#000000" height="1px" width="1px" x="26px" y="21px"/>
<rect fill="#000000" height="1px" width="1px" x="27px" y="21px"/>
<rect fill="#000000" height="1px" width="1px" x="4px" y="22px"/>
<rect fill="#000000" height="1px" width="1px" x="5px" y="22px"/>
<rect fill="#000000" height="1px" width="1px" x="26px" y="22px"/>
<rect fill="#000000" height="1px" width="1px" x="27px" y="22px"/>
<rect fill="#000000" height="1px" width="1px" x="4px" y="23px"/>
<rect fill="#000000" height="1px" width="1px" x="5px" y="23px"/>
<rect fill="#000000" height="1px" width="1px" x="6px" y="23px"/>
<rect fill="#000000" height="1px" width="1px" x="25px" y="23px"/>
<rect fill="#000000" height="1px" width="1px" x="26px" y="23px"/>
<rect fill="#000000" height="1px" width="1px" x="27px" y="23px"/>
<rect fill="#000000" height="1px" width="1px" x="5px" y="24px"/>
<rect fill="#000000" height="1px" width="1px" x="6px" y="24px"/>
<rect fill="#000000" height="1px" width="1px" x="7px" y="24px"/>
<rect fill="#000000" height="1px" width="1px" x="24px" y="24px"/>
<rect fill="#000000" height="1px" width="1px" x="25px" y="24px"/>
<rect fill="#000000" height="1px" width="1px" x="26px" y="24px"/>
<rect fill="#000000" height="1px" width="1px" x="6px" y="25px"/>
<rect fill="#000000" height="1px" width="1px" x="7px" y="25px"/>
<rect fill="#000000" height="1px" width="1px" x="8px" y="25px"/>
<rect fill="#000000" height="1px" width="1px" x="9px" y="25px"/>
<rect fill="#000000" height="1px" width="1px" x="22px" y="25px"/>
<rect fill="#000000" height="1px" width="1px" x="23px" y="25px"/>
<rect fill="#000000" height="1px" width="1px" x="24px" y="25px"/>
<rect fill="#000000" height="1px" width="1px" x="25px" y="25px"/>
<rect fill="#000000" height="1px" width="1px" x="7px" y="26px"/>
<rect fill="#000000" height="1px" width="1px" x="8px" y="26px"/>
<rect fill="#000000" height="1px" width="1px" x="9px" y="26px"/>
<rect fill="#000000" height="1px" width="1px" x="10px" y="26px"/>
<rect fill="#000000" height="1px" width="1px" x="11px" y="26px"/>
<rect fill="#000000" height="1px" width="1px" x="12px" y="26px"/>
<rect fill="#000000" height="1px" width="1px" x="13px" y="26px"/>
<rect fill="#000000" height="1px" width="1px" x="14px" y="26px"/>
<rect fill="#000000" height="1px" width="1px" x="15px" y="26px"/>
<rect fill="#000000" height="1px" width="1px" x="16px" y="26px"/>
<rect fill="#000000" height="1px" width="1px" x="17px" y="26px"/>
<rect fill="#000000" height="1px" width="1px" x="18px" y="26px"/>
<rect fill="#000000" height="1px" width="1px" x="19px" y="26px"/>
<rect fill="#000000" height="1px" width="1px" x="20px" y="26px"/>
<rect fill="#000000" height="1px" width="1px" x="21px" y="26px"/>
<rect fill="#000000" height="1px" width="1px" x="22px" y="26px"/>
<rect fill="#000000" height="1px" width="1px" x="23px" y="26px"/>
<rect fill="#000000" height="1px" width="1px" x="24px" y="26px"/>
<rect fill="#000000" height="1px" width="1px" x="9px" y="27px"/>
<rect fill="#000000" height="1px" width="1px" x="10px" y="27px"/>
<rect fill="#000000" height="1px" width="1px" x="11px" y="27px"/>
<rect fill="#000000" height="1px" width="1px" x="12px" y="27px"/>
<rect fill="#000000" height="1px" width="1px" x="13px" y="27px"/>
<rect fill="#000000" height="1px" width="1px" x="14px" y="27px"/>
<rect fill="#000000" height="1px" width="1px" x="15px" y="27px"/>
<rect fill="#000000" height="1px" width="1px" x="16px" y="27px"/>
<rect fill="#000000" height="1px" width="1px" x="17px" y="27px"/>
<rect fill="#000000" height="1px" width="1px" x="18px" y="27px"/>
<rect fill="#000000" height="1px" width="1px" x="19px" y="27px"/>
<rect fill="#000000" height="1px" width="1px" x="20px" y="27px"/>
<rect fill="#000000" height="1px" width="1px" x="21px" y="27px"/>
<rect fill="#000000" height="1px" width="1px" x="22px" y="27px"/>
</svg>